<?xml version="1.0" standalone="no"?>
<!DOCTYPE svg PUBLIC "-//W3C//DTD SVG 20010904//EN"
 "http://www.w3.org/TR/2001/REC-SVG-20010904/DTD/svg10.dtd">
<svg version="1.0" xmlns="http://www.w3.org/2000/svg"
 width="4168.000000pt" height="4167.000000pt" viewBox="0 0 4168.000000 4167.000000"
 preserveAspectRatio="xMidYMid meet">

<g transform="translate(0.000000,4167.000000) scale(0.100000,-0.100000)"
fill="#000000" stroke="none">
<path d="M22426 37019 c49 -34 234 -160 412 -281 177 -122 321 -222 320 -224
-2 -1 -68 20 -148 46 -382 129 -817 217 -1234 250 -274 21 -672 11 -931 -26
-718 -100 -1329 -519 -1694 -1160 l-51 -90 -233 -13 c-546 -29 -1678 -142
-1976 -197 -460 -85 -866 -239 -1346 -512 -82 -46 -296 -176 -475 -287 -562
-350 -767 -455 -1059 -545 -185 -57 -329 -129 -556 -277 -465 -305 -1045 -802
-1771 -1516 -307 -302 -639 -646 -608 -629 11 6 191 117 400 247 208 130 370
228 359 217 -11 -10 -65 -57 -120 -104 -254 -218 -577 -585 -852 -968 -219
-304 -530 -796 -632 -997 -13 -27 -26 -40 -35 -37 -25 10 -180 -17 -268 -46
-168 -56 -376 -179 -469 -277 -200 -208 -483 -771 -782 -1553 -78 -204 -147
-393 -147 -403 0 -3 86 -67 190 -143 105 -75 189 -142 187 -148 -2 -6 -93
-302 -202 -658 l-199 -648 -181 0 -181 0 -191 -477 -191 -478 -106 -3 -106 -3
5 53 c3 29 10 116 15 193 96 1271 533 2998 1222 4830 144 383 378 961 473
1170 l32 70 109 18 c260 44 495 154 624 293 126 135 229 312 540 924 331 650
357 695 494 860 148 177 326 340 735 675 401 327 519 444 551 541 65 195 -276
573 -866 960 -270 178 -357 209 -520 185 -366 -52 -784 -400 -1578 -1315 -213
-246 -302 -358 -412 -521 -197 -292 -357 -596 -511 -975 -72 -178 -212 -601
-254 -768 l-33 -133 122 -122 123 -123 -96 -204 c-521 -1107 -1053 -2485
-1430 -3704 -507 -1641 -793 -3108 -865 -4436 -19 -358 -10 -1300 20 -2155 82
-2262 285 -4297 590 -5895 81 -425 200 -937 274 -1181 237 -782 812 -1255
1604 -1321 l142 -11 42 -76 c160 -294 414 -603 593 -723 207 -139 552 -152
982 -38 62 17 114 30 117 30 3 0 7 -197 8 -437 l3 -438 85 -23 c351 -93 853
-145 1415 -146 382 -1 479 6 698 50 43 9 80 14 82 12 7 -7 -73 -376 -124 -569
-420 -1616 -1296 -2993 -2496 -3925 -250 -194 -631 -447 -840 -557 -64 -34 2
-14 158 47 859 337 1736 881 2460 1525 961 854 1686 1908 2108 3064 30 81 57
146 61 144 3 -1 43 -51 89 -112 505 -671 1222 -1434 1969 -2094 530 -469 1061
-875 1653 -1266 132 -86 296 -203 365 -259 1632 -1320 3995 -2271 6387 -2571
880 -110 1665 -128 2164 -49 52 8 96 12 99 10 2 -3 -5 -81 -17 -173 -53 -418
-70 -773 -53 -1115 17 -352 47 -572 117 -848 50 -199 54 -204 54 -74 4 666
248 1533 649 2307 l77 149 116 52 c471 214 948 583 1360 1051 722 821 1415
1873 2362 3585 822 1487 1317 2691 1571 3825 122 541 202 1204 236 1950 11
248 12 1054 1 1305 -4 91 -6 166 -5 168 1 2 55 17 120 33 148 37 272 80 389
132 457 204 832 582 1004 1012 85 213 119 370 191 875 28 195 62 416 76 490
73 375 182 632 368 865 95 119 119 252 120 660 1 279 -9 422 -40 575 -25 122
-36 138 -139 192 -387 204 -1355 532 -2140 724 -60 15 -111 28 -112 29 -2 1 4
75 12 166 110 1261 66 2506 -131 3629 -137 783 -364 1575 -612 2140 -28 63
-53 135 -56 160 l-5 45 114 89 c530 412 1001 1042 1275 1708 447 1086 403
2330 -132 3668 -181 453 -363 763 -654 1112 -489 587 -1231 1173 -2095 1656
-140 78 -429 225 -434 220 -2 -2 150 -178 337 -393 187 -214 342 -394 345
-399 3 -5 -27 16 -68 47 -307 231 -760 436 -1274 576 -1118 306 -2745 354
-4450 131 -339 -45 -437 -51 -760 -51 -381 0 -695 20 -1130 72 -234 28 -615
84 -808 120 -89 16 -166 29 -171 29 -5 0 30 -27 80 -61z m-11250 -1619 c90
-46 153 -92 287 -208 93 -81 417 -407 417 -421 0 -3 -43 -26 -96 -50 -510
-235 -998 -729 -1426 -1446 -217 -363 -464 -861 -638 -1285 -35 -85 -66 -158
-69 -162 -3 -4 -51 29 -106 73 -132 106 -290 213 -368 249 -119 56 -303 90
-490 90 l-98 0 7 38 c3 20 24 109 46 197 136 550 412 1152 781 1705 118 176
241 341 244 327 2 -7 -21 -155 -50 -329 -30 -174 -50 -315 -47 -313 4 3 26 36
49 74 98 165 334 477 564 744 158 183 480 511 596 607 201 165 259 182 397
110z m1123 -3327 c-226 -228 -312 -322 -500 -548 -262 -316 -486 -619 -749
-1015 -231 -350 -529 -844 -516 -858 6 -5 177 32 271 59 40 12 42 11 489 -195
246 -114 452 -206 456 -204 5 2 69 91 142 198 395 577 777 1065 1247 1594 216
244 558 602 759 793 l187 178 -190 -195 c-332 -341 -564 -597 -849 -939 -1491
-1790 -2491 -3754 -2921 -5741 -77 -358 -105 -535 -240 -1535 -31 -225 -80
-574 -111 -775 l-55 -365 -14 -465 c-30 -1011 -63 -1357 -161 -1719 -76 -279
-227 -538 -378 -646 -145 -103 -299 -141 -531 -131 -222 9 -491 75 -738 181
l-88 38 42 35 c131 112 300 348 403 562 119 248 190 484 237 785 22 143 24
175 24 695 1 536 5 620 41 945 61 555 205 1287 404 2047 113 435 291 1042 310
1062 11 11 128 -11 322 -60 280 -70 438 -146 451 -217 5 -29 5 -28 66 183 128
440 296 905 495 1368 69 161 74 174 54 154 -21 -21 -63 -13 -154 32 -139 67
-533 341 -534 371 0 6 153 372 340 815 187 442 338 805 336 807 -2 2 -239
-316 -526 -708 -288 -391 -529 -713 -536 -716 -31 -11 -594 -99 -594 -92 0 5
40 102 89 216 357 838 693 1374 935 1497 30 15 79 30 111 33 l57 6 92 141
c333 509 807 1126 1202 1561 156 174 509 529 654 660 131 118 361 314 370 315
3 0 -88 -93 -201 -207z m-3321 -788 c1 -1 -21 -44 -49 -96 -124 -227 -326
-672 -487 -1075 -449 -1124 -831 -2450 -1112 -3864 -124 -623 -180 -1002 -224
-1535 -149 -1779 11 -4159 455 -6765 86 -504 236 -1286 246 -1277 6 7 63 386
98 658 74 584 104 939 112 1352 3 169 7 306 9 304 7 -7 69 -248 104 -407 160
-725 255 -1613 267 -2495 6 -426 -1 -613 -33 -890 -63 -551 -210 -1020 -402
-1282 l-46 -63 -17 29 c-49 81 -207 439 -301 686 -535 1392 -895 3151 -1033
5045 -43 600 -78 1414 -96 2265 -47 2195 141 3961 600 5666 322 1193 801 2446
1426 3736 l98 202 191 -96 c105 -52 192 -96 194 -98z m12744 -120 c1126 -344
2847 -550 4138 -495 400 17 636 37 1300 110 633 70 702 75 1020 74 306 0 434
-12 660 -60 288 -61 509 -148 745 -291 514 -313 1164 -983 1754 -1808 158
-222 311 -449 311 -462 0 -6 20 -54 45 -108 123 -264 274 -690 375 -1055 199
-716 321 -1450 386 -2320 22 -286 30 -1202 15 -1526 -10 -213 -39 -637 -44
-657 -1 -4 -26 9 -55 28 -131 89 -361 185 -562 236 -229 58 -296 63 -852 63
l-507 1 22 35 c11 19 31 51 44 70 13 19 23 38 23 41 0 14 -420 -130 -680 -233
-218 -87 -363 -183 -550 -363 -58 -56 -135 -122 -171 -148 -36 -25 -96 -78
-131 -116 -65 -70 -67 -71 -149 -90 -257 -60 -673 -86 -959 -61 -241 22 -519
78 -741 149 -87 28 -99 35 -124 71 -88 128 -336 314 -613 462 l-113 60 -61
122 c-149 299 -214 377 -378 448 -188 81 -770 296 -770 284 0 -2 47 -45 105
-96 58 -51 104 -94 103 -96 -2 -1 -89 27 -193 62 -543 185 -761 220 -1710 274
-198 11 -400 23 -450 28 l-90 7 257 94 c142 52 256 96 255 98 -7 6 -214 33
-377 49 -212 21 -716 24 -890 6 -299 -32 -527 -83 -835 -186 -179 -60 -439
-160 -620 -239 -74 -32 -95 -36 -270 -51 -256 -23 -787 -90 -910 -116 -194
-39 -387 -110 -524 -189 l-67 -40 -2792 -482 c-1536 -265 -2794 -480 -2796
-478 -7 7 13 444 29 654 84 1080 305 1984 665 2720 102 209 172 329 382 656
173 269 309 504 437 759 195 384 287 631 382 1020 33 135 73 273 89 308 61
131 187 225 321 238 241 24 571 -132 1169 -552 263 -184 291 -201 405 -237
128 -40 225 -50 433 -44 359 10 747 101 1247 292 37 14 -148 -126 -290 -220
-319 -212 -678 -393 -1069 -541 l-139 -52 49 -9 c27 -4 191 -8 364 -8 335 0
428 8 720 61 386 70 783 202 1155 384 237 116 363 208 550 401 351 365 655
929 910 1692 135 407 272 941 335 1307 29 165 23 153 67 135 20 -9 117 -40
215 -70z m-12941 -5591 c-209 -648 -388 -1222 -425 -1369 -33 -134 -61 -292
-83 -472 -26 -216 -25 -878 2 -1283 24 -361 28 -1042 7 -1210 -58 -470 -205
-814 -452 -1060 -57 -57 -280 -221 -280 -205 0 3 -11 72 -25 153 -76 453 -99
772 -100 1357 0 485 6 604 46 1014 80 822 261 1703 524 2551 68 220 198 587
212 601 10 10 677 269 681 264 2 -1 -46 -155 -107 -341z m1839 -2019 c416
-234 962 -711 1408 -1229 686 -795 1201 -1732 1502 -2728 204 -676 411 -1841
500 -2813 48 -530 54 -683 55 -1345 0 -669 -5 -808 -50 -1257 -55 -542 -170
-1148 -276 -1451 -167 -473 -537 -787 -1052 -893 -95 -19 -317 -38 -317 -27 0
3 14 38 31 79 223 539 385 1400 449 2390 65 996 -3 2465 -155 3389 -298 1804
-1104 3505 -2234 4717 -77 83 -146 153 -152 155 -7 2 13 174 61 528 39 289 73
531 76 539 7 20 47 6 154 -54z m11180 -616 c665 -32 1577 -115 2680 -245 335
-39 452 -59 633 -109 363 -99 678 -269 903 -487 135 -131 218 -244 295 -403
127 -262 166 -509 156 -978 -6 -284 -24 -449 -77 -721 -136 -690 -437 -1308
-810 -1659 -220 -208 -557 -347 -1045 -431 -182 -31 -710 -98 -970 -123 -272
-26 -1078 -26 -1340 0 -649 65 -1033 155 -1390 326 -231 111 -375 210 -516
353 -175 178 -284 387 -339 652 -45 214 -51 312 -61 1066 -16 1087 -7 1387 51
1726 95 552 302 883 624 994 164 56 576 70 1206 39z m9520 -793 c1285 -171
2438 -480 2875 -771 149 -99 286 -267 359 -442 77 -185 107 -350 113 -631 6
-248 -2 -363 -48 -692 -74 -533 -142 -855 -239 -1135 -47 -133 -154 -363 -220
-470 -300 -488 -802 -773 -1523 -865 -706 -90 -1388 -16 -1962 212 -215 85
-497 246 -669 382 -566 444 -891 1128 -965 2029 -16 186 -13 626 4 841 29 352
81 691 124 801 161 415 692 694 1456 764 170 16 476 6 695 -23z m-12158 -351
c71 -136 148 -322 184 -440 26 -88 27 -97 35 -470 4 -209 10 -429 14 -490 64
-1138 153 -1656 356 -2064 133 -269 299 -458 542 -615 163 -107 337 -179 604
-252 1126 -306 2392 -374 3508 -188 574 95 993 264 1383 556 123 92 332 295
432 419 376 467 612 1124 751 2094 36 250 41 270 86 358 71 135 218 238 393
273 108 21 289 15 403 -15 304 -80 561 -271 679 -506 100 -199 144 -461 173
-1025 19 -371 38 -501 107 -740 326 -1116 1489 -1886 3038 -2010 83 -7 270
-10 436 -8 l291 3 7 -155 c9 -238 7 -980 -4 -1215 -19 -389 -63 -886 -105
-1190 -175 -1247 -658 -2531 -1593 -4235 -173 -315 -557 -988 -737 -1290 -592
-995 -1115 -1731 -1647 -2318 -506 -558 -1099 -908 -1768 -1042 -312 -63 -625
-84 -1039 -70 -283 10 -334 13 -616 36 -2117 173 -4274 902 -5930 2005 -591
393 -1053 783 -1534 1293 -748 793 -1345 1561 -1874 2411 -660 1062 -1165
2236 -1373 3194 -40 183 -40 197 -9 481 41 381 49 581 50 1225 0 619 -4 755
-41 1255 -121 1674 -409 3072 -826 4013 -39 87 -69 159 -67 161 6 4 5602 674
5619 673 8 -1 41 -51 72 -112z m-9010 -610 c195 -168 444 -482 635 -800 475
-790 807 -1829 977 -3060 153 -1104 182 -2222 80 -3065 -95 -785 -292 -1427
-588 -1914 -79 -129 -240 -346 -250 -335 -2 2 -36 319 -76 704 -39 385 -73
701 -75 703 -2 2 -9 -29 -15 -70 l-12 -73 -62 -49 c-176 -141 -377 -240 -571
-281 -100 -21 -298 -19 -410 4 -165 34 -333 113 -480 225 -118 91 -115 86 -99
186 36 221 75 705 94 1170 18 444 24 1197 11 1445 -41 781 -174 1536 -412
2339 -55 183 -176 545 -215 640 -13 33 -23 60 -21 62 9 8 1180 273 1187 269
35 -22 257 -371 382 -600 54 -99 98 -171 98 -160 0 23 -266 2625 -275 2693 -4
23 -3 42 2 42 5 0 47 -34 95 -75z"/>
<path d="M25250 16586 c-320 -255 -514 -554 -565 -871 -37 -224 6 -453 121
-648 66 -112 239 -284 351 -350 395 -235 968 -278 1616 -121 l148 36 77 -27
c199 -71 354 -163 495 -293 93 -86 141 -110 201 -98 132 27 141 199 21 381
-57 85 -187 218 -259 263 -258 163 -678 193 -1186 86 -136 -28 -282 -74 -287
-91 -2 -6 5 -14 16 -18 29 -9 26 -31 -6 -52 -23 -15 -50 -18 -188 -17 -145 0
-169 3 -250 28 -234 71 -417 207 -545 403 -144 220 -165 475 -65 781 58 175
209 439 354 616 34 42 61 76 59 76 -2 0 -51 -38 -108 -84z"/>
<path d="M30201 15712 c-34 -373 -178 -628 -442 -785 -134 -79 -342 -137 -493
-137 -87 0 -79 9 -126 -130 -41 -121 -51 -238 -25 -294 22 -47 60 -66 128 -66
174 0 448 169 708 437 173 178 256 328 300 538 32 154 21 400 -24 529 -13 39
-14 38 -26 -92z"/>
</g>
</svg>
