<?xml version="1.0" standalone="no"?>
<!DOCTYPE svg PUBLIC "-//W3C//DTD SVG 20010904//EN"
 "http://www.w3.org/TR/2001/REC-SVG-20010904/DTD/svg10.dtd">
<svg version="1.0" xmlns="http://www.w3.org/2000/svg"
 width="495.000000pt" height="498.000000pt" viewBox="0 0 495.000000 498.000000"
 preserveAspectRatio="xMidYMid meet">

<g transform="translate(0.000000,498.000000) scale(0.100000,-0.100000)"
fill="#000000" stroke="none">
<path d="M655 4457 c-66 -101 -135 -489 -135 -763 l0 -110 -60 -116 c-113
-218 -162 -418 -163 -668 -1 -226 38 -401 133 -592 69 -140 132 -231 232 -333
48 -49 88 -93 88 -97 0 -4 20 -58 44 -120 26 -68 48 -145 55 -193 14 -105 31
-388 31 -545 1 -280 27 -399 103 -478 116 -122 344 -127 453 -10 70 74 102
149 129 303 23 132 36 185 45 185 5 0 59 -11 122 -24 62 -14 153 -28 203 -32
83 -7 92 -9 123 -40 53 -51 117 -78 190 -78 l62 -1 0 -47 c0 -124 34 -264 81
-332 53 -78 163 -121 288 -114 93 6 158 36 220 103 82 89 117 199 167 512 l27
171 46 18 c25 9 91 39 145 66 62 30 113 48 135 48 20 0 79 9 131 20 52 11 98
20 101 20 3 0 -2 -42 -12 -92 -36 -183 -19 -285 56 -345 l33 -26 -42 -86 c-38
-80 -41 -92 -41 -173 0 -80 2 -89 30 -130 37 -52 121 -105 182 -114 130 -19
319 79 442 231 175 216 347 585 421 901 81 346 96 774 40 1152 -41 280 -107
447 -272 683 -90 129 -179 223 -311 327 -312 247 -588 375 -921 430 -72 11
-112 23 -117 32 -4 8 -20 69 -34 135 -30 131 -73 261 -106 314 -19 32 -22 33
-62 27 -99 -16 -268 -127 -412 -271 l-81 -80 -89 23 c-149 38 -286 53 -475 53
-200 0 -338 -17 -518 -62 l-123 -31 -72 69 c-130 123 -266 217 -383 266 -95
39 -111 41 -129 14z m209 -110 c73 -42 201 -142 288 -225 l77 -74 58 21 c66
23 221 54 365 71 161 20 455 8 618 -24 74 -15 142 -34 151 -42 24 -21 33 -18
81 34 88 93 188 181 260 229 72 48 127 77 134 70 2 -1 -14 -45 -36 -97 -21
-52 -54 -147 -73 -210 -52 -173 -51 -169 -25 -179 82 -31 334 -259 405 -366
96 -146 164 -294 199 -434 24 -95 45 -306 41 -411 -2 -49 0 -55 18 -55 31 0
40 83 26 245 -15 178 -39 274 -104 430 -35 85 -108 214 -140 248 -17 18 -23
45 -33 140 -7 64 -15 138 -19 165 -9 58 -13 57 155 22 205 -44 398 -119 603
-236 204 -117 458 -355 581 -546 62 -96 70 -120 45 -126 -23 -6 -24 -30 -3
-88 92 -260 81 -654 -27 -911 -43 -102 -46 -117 -59 -257 -41 -452 -214 -835
-428 -949 -103 -55 -179 -53 -274 7 -92 59 -101 125 -48 381 49 236 46 433 -5
414 -11 -4 -14 -36 -14 -137 -1 -180 -4 -189 -72 -205 -30 -7 -101 -18 -159
-26 -93 -12 -118 -20 -219 -70 -63 -31 -116 -54 -119 -51 -3 2 3 45 13 96 15
77 16 92 4 100 -8 4 -18 4 -22 0 -13 -13 -42 -151 -92 -431 -57 -325 -91 -428
-166 -497 -106 -96 -293 -96 -393 0 -70 67 -86 133 -96 402 -11 279 -26 357
-64 326 -10 -8 -11 -23 -6 -54 5 -23 10 -64 12 -92 l3 -50 -148 -3 c-212 -4
-520 39 -534 74 -2 7 12 45 33 84 33 60 36 72 24 80 -24 15 -28 13 -56 -31
-43 -69 -73 -162 -104 -330 -32 -175 -58 -244 -114 -307 -53 -58 -106 -76
-208 -70 -93 5 -129 20 -182 74 -70 72 -77 108 -92 494 -16 433 -27 540 -65
651 -16 48 -29 91 -29 97 0 6 37 -14 83 -44 97 -66 148 -93 265 -140 343 -139
813 -166 1190 -68 199 52 399 147 564 270 43 32 77 63 75 69 -8 24 -41 12
-132 -50 -259 -177 -518 -264 -877 -295 -217 -18 -479 12 -690 80 -115 38
-307 131 -413 202 -162 108 -349 324 -435 503 -69 143 -110 351 -110 552 0
283 60 509 192 719 60 97 191 242 280 310 57 44 58 47 52 82 -13 72 -56 229
-98 359 -24 73 -41 134 -39 137 6 6 60 -19 127 -57z m3781 -1542 c58 -172 95
-454 95 -726 0 -98 -3 -179 -6 -179 -4 0 -38 11 -76 25 -38 14 -78 25 -89 25
-24 0 -24 0 10 100 53 152 66 237 66 435 0 186 -14 290 -56 412 -9 28 -14 54
-11 58 8 7 34 -51 67 -150z m-54 -1031 c30 -9 71 -25 93 -36 l39 -20 -7 -66
c-6 -67 -43 -259 -65 -340 l-12 -42 -45 30 c-24 17 -70 42 -100 56 -50 22 -55
27 -50 49 15 58 35 178 46 278 15 121 11 118 101 91z m-148 -580 c48 -25 124
-82 130 -98 10 -24 -68 -206 -141 -333 l-35 -61 -31 45 c-16 25 -57 66 -90 90
-34 25 -62 46 -63 47 -2 2 21 40 51 85 30 45 69 118 88 161 18 44 39 80 46 80
7 0 27 -7 45 -16z m-2133 -364 c0 -26 -4 -30 -27 -31 -59 -4 -99 4 -138 25
l-40 21 55 6 c30 3 76 6 103 7 46 2 47 1 47 -28z m1804 -100 c52 -35 133 -123
154 -167 15 -31 15 -32 -27 -82 -71 -84 -190 -159 -287 -181 -60 -14 -129 0
-184 36 -96 64 -109 158 -41 300 l41 86 32 -9 c65 -16 160 -8 213 19 28 14 51
26 53 27 2 0 23 -12 46 -29z"/>
<path d="M969 2915 c-52 -29 -62 -111 -17 -151 13 -13 35 -19 65 -19 37 0 49
5 69 28 68 79 -26 194 -117 142z"/>
<path d="M2427 2919 c-27 -16 -49 -67 -42 -98 20 -92 153 -101 186 -12 29 74
-72 152 -144 110z"/>
<path d="M1681 2616 c-8 -9 -10 -35 -5 -77 5 -57 3 -68 -18 -99 -32 -46 -80
-78 -133 -86 -52 -7 -73 -25 -50 -44 26 -22 130 7 186 52 8 7 23 25 33 40 l17
27 40 -39 c67 -65 209 -106 209 -60 0 13 -9 22 -27 26 -110 24 -174 75 -198
156 -8 28 -15 62 -15 74 0 30 -24 49 -39 30z"/>
</g>
</svg>
