<?xml version="1.0" standalone="no"?>
<!DOCTYPE svg PUBLIC "-//W3C//DTD SVG 20010904//EN"
 "http://www.w3.org/TR/2001/REC-SVG-20010904/DTD/svg10.dtd">
<svg version="1.0" xmlns="http://www.w3.org/2000/svg"
 width="495.000000pt" height="498.000000pt" viewBox="0 0 495.000000 498.000000"
 preserveAspectRatio="xMidYMid meet">

<g transform="translate(0.000000,498.000000) scale(0.100000,-0.100000)"
fill="#000000" stroke="none">
<path d="M2865 4537 c-88 -34 -289 -169 -375 -254 l-76 -74 -40 15 c-39 13
-169 37 -279 51 -55 7 -337 7 -400 1 -87 -10 -170 -20 -175 -21 -4 -1 -72 -14
-100 -20 -3 0 -40 -9 -83 -19 l-78 -19 -42 39 c-111 105 -240 195 -372 260
-174 85 -248 69 -287 -60 -34 -118 -70 -275 -83 -366 -22 -160 -26 -219 -26
-333 l0 -131 -52 -91 c-93 -161 -153 -350 -173 -545 -46 -442 88 -847 380
-1147 59 -61 74 -85 99 -150 54 -146 67 -195 72 -261 3 -37 8 -83 10 -102 2
-19 6 -118 9 -220 15 -463 20 -504 67 -605 43 -92 138 -172 235 -201 51 -15
148 -20 194 -10 14 3 37 8 53 12 49 10 91 37 148 94 85 85 124 173 154 350 9
51 17 95 18 97 2 1 19 -2 38 -7 50 -13 83 -19 191 -31 79 -10 101 -16 122 -36
34 -32 141 -81 186 -86 l35 -3 7 -66 c20 -178 94 -323 189 -373 127 -67 282
-74 402 -17 155 72 232 210 282 507 10 55 18 107 20 115 1 8 6 35 9 60 15 101
13 98 74 120 31 12 82 34 112 49 37 19 78 30 126 34 39 4 79 10 89 13 16 6 17
4 10 -22 -4 -16 -9 -67 -11 -112 -4 -94 14 -156 61 -218 24 -32 25 -37 12 -57
-29 -46 -57 -151 -57 -218 0 -55 5 -77 31 -125 33 -64 70 -108 109 -129 118
-64 189 -77 287 -51 115 29 242 106 329 197 41 44 174 231 174 245 0 4 6 15
14 23 16 18 137 250 154 296 6 17 27 73 47 125 73 188 116 371 139 595 31 298
31 463 -3 850 -14 152 -61 351 -99 421 -6 10 -30 57 -53 104 -22 47 -54 104
-70 128 -16 24 -29 45 -29 47 0 6 -45 64 -121 160 -90 112 -360 346 -449 388
-8 4 -28 16 -45 27 -16 10 -70 40 -120 66 -49 25 -94 50 -100 53 -19 13 -120
51 -175 66 -145 40 -241 64 -305 75 l-71 12 -23 102 c-30 126 -74 254 -112
327 -44 83 -95 96 -204 56z m-2081 -94 c117 -49 253 -143 383 -266 l72 -69
123 31 c180 45 318 62 518 62 189 0 326 -15 475 -53 l89 -23 81 80 c144 144
313 255 412 271 40 6 43 5 62 -27 33 -53 76 -183 106 -314 14 -66 30 -127 34
-135 5 -9 45 -21 117 -32 333 -55 609 -183 921 -430 132 -104 221 -198 311
-327 165 -236 231 -403 272 -683 56 -378 41 -806 -40 -1152 -74 -316 -246
-685 -421 -901 -123 -152 -312 -250 -442 -231 -61 9 -145 62 -182 114 -28 41
-30 50 -30 130 0 81 3 93 41 173 l42 86 -33 26 c-75 60 -92 162 -56 345 10 50
15 92 12 92 -3 0 -49 -9 -101 -20 -52 -11 -111 -20 -131 -20 -22 0 -73 -18
-135 -48 -54 -27 -120 -57 -145 -66 l-46 -18 -27 -171 c-50 -313 -85 -423
-167 -512 -62 -67 -127 -97 -220 -103 -125 -7 -235 36 -288 114 -47 68 -81
208 -81 332 l0 47 -62 1 c-73 0 -137 27 -190 78 -31 31 -40 33 -123 40 -50 4
-141 18 -203 32 -63 13 -117 24 -122 24 -9 0 -22 -53 -45 -185 -27 -154 -59
-229 -129 -303 -109 -117 -337 -112 -453 10 -76 79 -102 198 -103 478 0 157
-17 440 -31 545 -7 48 -29 125 -55 193 -24 62 -44 116 -44 120 0 4 -40 48 -88
97 -100 102 -163 193 -232 333 -95 191 -134 366 -133 592 1 250 50 450 163
668 l60 116 0 110 c0 274 69 662 135 763 18 27 34 25 129 -14z"/>
<path d="M2830 4378 c-91 -52 -159 -106 -267 -215 -100 -101 -119 -113 -139
-93 -18 18 -241 60 -383 72 -106 9 -175 9 -297 0 -148 -11 -412 -56 -477 -81
-16 -6 -32 -11 -37 -11 -5 0 -48 37 -96 81 -49 45 -126 110 -171 144 -89 67
-207 134 -218 123 -4 -3 14 -69 38 -145 51 -154 97 -329 97 -366 0 -16 -12
-32 -37 -50 -21 -15 -80 -69 -132 -120 -143 -141 -230 -281 -289 -467 -56
-176 -66 -248 -66 -445 0 -202 11 -274 68 -451 103 -315 377 -597 730 -749
244 -106 436 -145 706 -146 240 0 453 37 669 118 129 48 185 77 325 171 114
75 156 91 156 57 0 -28 -174 -146 -328 -224 -533 -268 -1280 -234 -1756 80
-49 33 -91 57 -93 55 -2 -2 6 -25 18 -52 12 -27 25 -62 30 -79 16 -51 38 -357
44 -610 8 -283 17 -372 48 -433 59 -120 214 -173 351 -121 101 37 152 129 190
344 32 175 49 232 93 318 25 47 41 67 55 67 25 0 34 -28 18 -54 -7 -11 -24
-43 -38 -70 -29 -57 -28 -58 73 -81 140 -32 445 -55 540 -41 l48 8 -7 56 c-3
31 -9 74 -12 94 -5 30 -3 39 10 44 43 17 54 -38 66 -311 10 -247 25 -325 71
-390 55 -77 165 -116 273 -96 69 13 111 37 161 92 70 78 94 154 150 484 33
189 67 360 81 408 6 20 27 22 42 4 7 -8 5 -39 -8 -102 -10 -49 -18 -91 -17
-92 1 -1 54 24 117 54 102 50 128 58 235 74 66 10 138 24 160 31 35 12 40 18
47 53 4 22 7 91 7 153 -1 114 6 140 34 129 20 -8 32 -116 23 -210 -4 -40 -20
-139 -37 -222 -44 -229 -39 -290 32 -349 73 -62 174 -76 262 -37 59 26 165
124 219 205 121 176 212 475 238 776 7 79 18 142 30 170 135 317 153 646 54
964 -26 82 -25 106 1 106 21 0 20 3 -20 79 -95 180 -372 451 -593 579 -132 76
-298 153 -411 191 -100 33 -347 88 -357 79 -3 -3 -1 -32 5 -63 6 -32 14 -101
18 -153 6 -93 8 -98 48 -154 139 -187 235 -499 235 -756 0 -131 -5 -152 -35
-152 -22 0 -23 1 -27 178 -6 200 -24 295 -84 440 -78 190 -168 325 -300 452
-101 97 -211 182 -251 194 -13 4 -23 14 -23 22 0 41 87 312 135 421 13 29 21
53 17 53 -4 0 -32 -14 -62 -32z m-1749 -1477 c53 -54 34 -140 -36 -159 -70
-20 -127 24 -127 95 0 29 7 43 31 65 43 39 92 38 132 -1z m1470 0 c62 -62 19
-161 -71 -161 -87 0 -130 92 -74 159 22 26 33 31 71 31 36 0 50 -6 74 -29z
m-835 -283 c5 -7 11 -37 15 -67 10 -74 50 -129 118 -163 30 -16 64 -28 77 -28
12 0 27 -7 34 -16 11 -12 11 -18 -2 -30 -29 -30 -159 18 -217 80 l-24 26 -33
-39 c-42 -48 -120 -83 -177 -79 -34 2 -42 7 -42 22 0 15 12 22 58 33 69 15
107 40 137 88 18 29 20 43 14 94 -3 33 -4 67 -1 76 8 18 33 20 43 3z"/>
<path d="M4580 2942 c0 -6 5 -23 10 -38 22 -56 50 -207 60 -315 15 -179 -15
-407 -76 -561 -25 -64 -24 -78 5 -78 16 0 90 -23 145 -46 18 -7 18 0 13 212
-8 327 -46 569 -117 750 -33 81 -40 95 -40 76z"/>
<path d="M4496 1693 c-4 -54 -17 -146 -30 -205 l-22 -107 53 -22 c29 -12 72
-35 94 -51 23 -16 43 -28 45 -25 10 10 55 210 70 315 17 110 17 113 -2 127
-19 15 -164 65 -188 65 -9 0 -15 -27 -20 -97z"/>
<path d="M4373 1168 c-26 -67 -87 -180 -127 -235 l-36 -50 25 -11 c33 -15 102
-79 136 -125 l27 -37 24 42 c64 111 148 300 148 333 0 25 -139 125 -175 125
-3 0 -13 -19 -22 -42z"/>
<path d="M2195 851 l-90 -6 52 -22 c29 -13 72 -23 97 -23 44 0 46 1 46 30 0
17 -3 29 -7 28 -5 -1 -48 -4 -98 -7z"/>
<path d="M4015 727 c-31 -17 -57 -21 -120 -22 -44 0 -90 3 -101 8 -19 7 -26
-1 -60 -70 -50 -102 -58 -189 -22 -243 59 -87 170 -121 280 -85 72 23 173 91
236 158 59 64 60 60 -4 148 -36 50 -132 129 -155 129 -8 -1 -32 -11 -54 -23z"/>
</g>
</svg>
