<?xml version="1.0" standalone="no"?>
<!DOCTYPE svg PUBLIC "-//W3C//DTD SVG 20010904//EN"
 "http://www.w3.org/TR/2001/REC-SVG-20010904/DTD/svg10.dtd">
<svg version="1.0" xmlns="http://www.w3.org/2000/svg"
 width="300.000000pt" height="500.000000pt" viewBox="0 0 300.000000 500.000000"
 preserveAspectRatio="xMidYMid meet">

<g transform="translate(0.000000,500.000000) scale(0.100000,-0.100000)"
fill="#000000" stroke="none">
<path d="M1310 4855 c-96 -58 -179 -110 -184 -115 -11 -11 -11 -12 74 -337 33
-128 60 -238 60 -245 0 -7 -37 -26 -83 -42 -156 -54 -330 -157 -466 -275 -143
-126 -311 -351 -394 -531 -94 -202 -158 -462 -161 -655 -1 -92 2 -108 36 -200
84 -228 118 -416 125 -690 7 -293 -28 -524 -123 -795 -24 -68 -40 -128 -36
-131 4 -4 221 -181 482 -394 261 -213 483 -395 492 -403 17 -14 18 25 18 815
l0 830 -292 183 c-161 100 -294 184 -296 185 -1 1 -13 69 -27 151 -13 82 -27
168 -30 191 l-7 42 118 -64 c66 -36 239 -129 386 -207 l267 -143 1 -332 0
-331 109 -61 c60 -34 115 -61 121 -61 6 0 58 26 116 57 l104 58 0 332 0 332
90 48 c49 26 90 53 90 59 0 30 -192 235 -300 320 -65 51 -72 66 -19 38 29 -14
24 -6 -36 61 -38 43 -135 141 -215 218 -132 128 -139 137 -80 97 163 -109 387
-297 526 -441 53 -56 200 -221 219 -247 2 -2 260 132 413 216 50 28 92 47 92
43 0 -6 -37 -236 -55 -346 -4 -26 -23 -41 -134 -110 -71 -44 -128 -82 -127
-85 2 -3 34 -69 71 -148 43 -88 72 -138 76 -130 11 17 11 16 47 -97 74 -239
128 -563 63 -385 -57 156 -305 675 -336 700 -8 6 -49 -14 -133 -66 l-122 -76
0 -831 c0 -790 1 -829 18 -815 9 8 94 77 187 154 263 214 295 244 295 273 0
60 -73 330 -140 521 -40 113 -75 212 -78 220 -8 26 59 -82 114 -183 57 -104
63 -120 39 -111 -9 4 7 -39 41 -110 30 -64 67 -155 82 -201 14 -47 29 -85 32
-85 6 0 260 202 373 295 l36 31 -39 112 c-45 128 -80 262 -106 407 -26 143
-27 535 -1 690 24 141 68 312 114 433 34 92 35 99 29 188 -21 303 -120 599
-280 839 -197 295 -451 500 -743 601 -50 18 -83 35 -83 43 0 7 30 128 66 269
37 140 67 268 68 285 1 28 -8 35 -179 138 -99 60 -187 109 -195 109 -8 0 -94
-47 -190 -105z"/>
</g>
</svg>
