<?xml version="1.0" standalone="no"?>
<!DOCTYPE svg PUBLIC "-//W3C//DTD SVG 20010904//EN"
 "http://www.w3.org/TR/2001/REC-SVG-20010904/DTD/svg10.dtd">
<svg version="1.0" xmlns="http://www.w3.org/2000/svg"
 width="300.000000pt" height="500.000000pt" viewBox="0 0 300.000000 500.000000"
 preserveAspectRatio="xMidYMid meet">

<g transform="translate(0.000000,500.000000) scale(0.100000,-0.100000)"
fill="#000000" stroke="none">
<path d="M1310 4855 c-96 -58 -179 -110 -184 -115 -11 -11 -11 -12 74 -337 33
-128 60 -238 60 -245 0 -7 -37 -26 -83 -42 -156 -54 -330 -157 -466 -275 -143
-126 -311 -351 -394 -531 -94 -202 -158 -462 -161 -655 -1 -92 2 -108 36 -200
84 -228 118 -416 125 -690 7 -293 -28 -524 -123 -795 -24 -68 -40 -128 -36
-131 4 -4 221 -181 482 -394 261 -213 483 -395 492 -403 17 -14 18 25 18 815
l0 830 -292 183 c-161 100 -294 184 -296 185 -1 1 -13 69 -27 151 -13 82 -27
168 -30 191 l-7 42 118 -64 c66 -36 239 -129 386 -207 l267 -143 1 -332 0
-331 109 -61 c60 -34 115 -61 121 -61 6 0 58 26 116 57 l104 58 0 332 0 332
90 48 c49 26 90 53 90 59 0 30 -192 235 -300 320 -65 51 -72 66 -19 38 29 -14
24 -6 -36 61 -38 43 -135 141 -215 218 -132 128 -139 137 -80 97 163 -109 387
-297 526 -441 53 -56 200 -221 219 -247 2 -2 260 132 413 216 50 28 92 47 92
43 0 -6 -37 -236 -55 -346 -4 -26 -23 -41 -134 -110 -71 -44 -128 -82 -127
-85 2 -3 34 -69 71 -148 43 -88 72 -138 76 -130 11 17 11 16 47 -97 74 -239
128 -563 63 -385 -57 156 -305 675 -336 700 -8 6 -49 -14 -133 -66 l-122 -76
0 -831 c0 -790 1 -829 18 -815 9 8 94 77 187 154 263 214 295 244 295 273 0
60 -73 330 -140 521 -40 113 -75 212 -78 220 -8 26 59 -82 114 -183 57 -104
63 -120 39 -111 -9 4 7 -39 41 -110 30 -64 67 -155 82 -201 14 -47 29 -85 32
-85 6 0 260 202 373 295 l36 31 -39 112 c-45 128 -80 262 -106 407 -26 143
-27 535 -1 690 24 141 68 312 114 433 34 92 35 99 29 188 -21 303 -120 599
-280 839 -197 295 -451 500 -743 601 -50 18 -83 35 -83 43 0 7 30 128 66 269
37 140 67 268 68 285 1 28 -8 35 -179 138 -99 60 -187 109 -195 109 -8 0 -94
-47 -190 -105z m364 -46 c83 -50 152 -92 154 -94 2 -2 -54 -224 -114 -450 -27
-101 -30 -138 -11 -152 6 -5 48 -22 92 -38 200 -69 366 -175 525 -335 255
-254 405 -558 464 -936 25 -158 22 -214 -19 -321 -19 -50 -48 -144 -64 -210
-107 -424 -91 -858 45 -1276 40 -121 44 -140 31 -150 -21 -16 -200 -161 -261
-210 -38 -32 -50 -37 -57 -26 -5 8 -9 18 -9 23 0 5 -23 63 -51 128 -28 66 -48
126 -45 135 7 17 -87 202 -159 313 -49 77 -81 91 -109 47 -14 -21 -11 -35 50
-202 77 -212 126 -376 150 -499 l17 -90 -39 -34 c-40 -35 -132 -112 -281 -236
l-83 -68 0 769 1 768 82 50 c45 28 87 51 94 53 16 4 213 -394 301 -608 61
-150 70 -165 93 -168 41 -5 60 21 53 71 -23 173 -80 422 -124 541 -12 31 -30
61 -41 66 -11 6 -41 55 -68 109 l-49 97 107 67 c60 37 115 75 123 85 22 25 82
406 68 433 -18 33 -56 22 -208 -60 -81 -43 -186 -100 -234 -125 l-88 -47 -32
38 c-167 192 -330 349 -508 491 -115 92 -279 202 -300 202 -22 0 -50 -26 -50
-46 0 -7 80 -92 178 -188 160 -158 177 -177 177 -208 0 -31 9 -41 104 -118 97
-79 251 -238 251 -259 0 -5 -29 -25 -63 -45 -35 -19 -69 -41 -75 -49 -8 -9
-13 -114 -14 -338 l-3 -324 -87 -48 -88 -49 -87 49 -88 48 -3 326 c-2 295 -4
328 -20 342 -15 13 -129 76 -639 351 -147 79 -185 90 -203 57 -15 -30 46 -409
70 -435 19 -20 154 -106 417 -268 l153 -93 0 -769 0 -769 -23 20 c-16 15 -568
466 -865 709 -2 1 17 65 42 141 156 477 153 990 -6 1443 -47 133 -55 199 -38
325 50 386 209 715 470 975 159 160 325 266 525 335 44 16 86 33 93 38 17 13
15 51 -7 132 -41 150 -121 468 -119 470 25 24 327 194 337 190 8 -3 82 -46
165 -96z"/>
</g>
</svg>
